<svg width="393" height="316" viewBox="0 0 393 316" fill="none" xmlns="http://www.w3.org/2000/svg">
<rect y="57" width="393" height="259" fill="#212121"/>
<path fill-rule="evenodd" clip-rule="evenodd" d="M0 5.7H8.515V45.6H16.7025V51.3H25.2175V11.4H33.405V22.8H41.92V45.6H50.1075V34.2H58.6225H66.81H75.325V57H83.5125V28.5H92.0275V51.3H100.215V22.8H108.73V45.6H116.917V17.1H125.432V0H133.947V11.4H142.135V45.6H150.65V28.5H158.837V51.3H167.352V34.2H175.54V39.9H184.055V11.4H192.242H200.757V51.3H208.945V57H217.46V39.9H225.647V51.3H234.162V28.5H242.35V17.1H250.865V11.4H259.052H267.567V39.9H276.082V11.4H284.27V28.5H292.785V17.1H300.972H309.487V34.2H317.675V17.1H326.19V34.2H334.377V39.9H342.892H351.08V28.5H359.595V22.8H367.782V45.6H376.297V51.3H384.485V39.9H393V57H384.485H376.297H367.782H359.595H351.08H342.892H334.377H326.19H317.675H309.487H300.972H292.785H284.27H276.082H267.567H259.052H250.865H242.35H234.162H225.647H217.46H208.945H200.757H192.242H184.055H175.54H167.352H158.837H150.65H142.135H133.947H125.432H116.917H108.73H100.215H92.0275H83.5125H75.325H66.81H58.6225H50.1075H41.92H33.405H25.2175H16.7025H8.515H0V5.7Z" fill="url(#paint0_linear_22_69)"/>
<defs>
<linearGradient id="paint0_linear_22_69" x1="196.5" y1="0" x2="196.5" y2="57" gradientUnits="userSpaceOnUse">
<stop stop-color="#212121" stop-opacity="0.75"/>
<stop offset="1" stop-color="#212121"/>
</linearGradient>
</defs>
</svg>
